# Blender v2.78 (sub 0) OBJ File: 'raw.blend'
# www.blender.org
mtllib Inner_Corner_Stair_Collider.mtl
o Inner_Corner_stair_Cube.012
v -0.500000 -0.500000 0.500000
v -0.500000 -0.500000 -0.500000
v 0.500000 -0.500000 0.500000
v 0.500000 -0.400000 0.500000
v 0.500000 -0.500000 -0.500000
v -0.500000 0.500000 0.500000
v -0.500000 0.500000 -0.500000
v 0.500000 0.500000 -0.500000
v -0.400000 0.500000 0.500000
v 0.500000 0.500000 -0.400000
v -0.400000 0.500000 -0.400000
v -0.500000 -0.400000 0.500000
v 0.500000 -0.400000 -0.500000
v -0.500000 -0.400000 -0.500000
vn 0.0000 -1.0000 0.0000
vn 0.0000 1.0000 0.0000
vn 0.0000 0.7071 0.7071
vn 0.7071 0.7071 0.0000
vn 0.0000 0.0000 1.0000
vn 1.0000 0.0000 0.0000
vn 0.0000 0.0000 -1.0000
vn -1.0000 0.0000 0.0000
usemtl Material
s off
f 2//1 5//1 3//1 1//1
f 9//2 11//2 7//2 6//2
f 11//3 4//3 10//3
f 9//4 4//4 11//4
f 4//5 9//5 6//5 12//5
f 8//2 7//2 11//2 10//2
f 3//6 5//6 13//6 4//6
f 5//7 2//7 14//7 13//7
f 2//8 1//8 12//8 14//8
f 12//5 1//5 3//5 4//5
f 4//6 13//6 8//6 10//6
f 13//7 14//7 7//7 8//7
f 14//8 12//8 6//8 7//8
