# Blender v2.78 (sub 0) OBJ File: 'raw.blend'
# www.blender.org
mtllib Inner_Corner_Stair.mtl
o Inner_Corner_stair_Cube.012
v -0.500000 -0.500000 0.500000
v -0.500000 -0.400000 0.500000
v -0.500000 -0.500000 -0.500000
v -0.500000 -0.400000 -0.500000
v 0.500000 -0.500000 0.500000
v 0.500000 -0.400000 0.500000
v 0.500000 -0.500000 -0.500000
v 0.500000 -0.400000 -0.500000
v 0.500000 -0.400000 0.400000
v 0.400000 -0.400000 0.500000
v 0.400000 -0.400000 0.400000
v -0.500000 -0.300000 0.500000
v -0.500000 -0.300000 -0.500000
v 0.500000 -0.300000 -0.500000
v 0.400000 -0.300000 0.500000
v 0.500000 -0.300000 0.400000
v 0.400000 -0.300000 0.400000
v 0.500000 -0.300000 0.300000
v 0.300000 -0.300000 0.500000
v 0.300000 -0.300000 0.300000
v 0.200000 -0.300000 0.500000
v 0.500000 -0.300000 0.200000
v -0.500000 -0.100000 0.500000
v -0.500000 -0.200000 0.500000
v -0.500000 -0.200000 -0.500000
v 0.500000 -0.200000 -0.500000
v 0.200000 -0.200000 0.500000
v 0.500000 -0.200000 0.200000
v 0.500000 -0.200000 0.300000
v 0.300000 -0.200000 0.500000
v 0.300000 -0.200000 0.300000
v 0.200000 -0.200000 0.200000
v -0.500000 -0.100000 -0.500000
v 0.500000 -0.100000 -0.500000
v 0.200000 -0.100000 0.500000
v 0.500000 -0.100000 0.200000
v 0.200000 -0.100000 0.200000
v 0.100000 -0.100000 0.500000
v 0.500000 -0.100000 0.100000
v 0.100000 -0.100000 0.100000
v 0.500000 0.100000 -0.100000
v 0.500000 0.100000 -0.500000
v -0.500000 0.100000 -0.500000
v -0.500000 0.100000 0.500000
v -0.500000 -0.000000 0.500000
v -0.500000 -0.000000 -0.500000
v 0.500000 -0.000000 -0.500000
v 0.500000 -0.000000 0.000000
v 0.500000 -0.000000 0.100000
v 0.100000 -0.000000 0.500000
v 0.100000 -0.000000 0.100000
v 0.000000 -0.000000 0.500000
v 0.000000 0.000000 0.000000
v 0.500000 0.200000 -0.500000
v -0.500000 0.200000 -0.500000
v -0.500000 0.200000 0.500000
v 0.500000 0.100000 0.000000
v 0.000000 0.100000 0.500000
v 0.000000 0.100000 0.000000
v -0.100000 0.100000 0.500000
v -0.100000 0.100000 -0.100000
v 0.500000 0.300000 -0.500000
v -0.500000 0.300000 -0.500000
v -0.500000 0.300000 0.500000
v 0.500000 0.200000 -0.200000
v 0.500000 0.200000 -0.100000
v -0.100000 0.200000 0.500000
v -0.100000 0.200000 -0.100000
v -0.200000 0.200000 0.500000
v -0.200000 0.200000 -0.200000
v -0.500000 0.400000 -0.500000
v -0.500000 0.400000 0.500000
v 0.500000 0.300000 -0.300000
v 0.500000 0.300000 -0.200000
v -0.200000 0.300000 0.500000
v -0.200000 0.300000 -0.200000
v -0.300000 0.300000 0.500000
v -0.300000 0.300000 -0.300000
v -0.500000 0.500000 0.500000
v 0.500000 0.400000 -0.500000
v -0.400000 0.400000 0.500000
v 0.500000 0.400000 -0.400000
v 0.500000 0.400000 -0.300000
v -0.300000 0.400000 0.500000
v -0.300000 0.400000 -0.300000
v -0.400000 0.400000 -0.400000
v -0.500000 0.500000 -0.500000
v 0.500000 0.500000 -0.500000
v -0.400000 0.500000 0.500000
v 0.500000 0.500000 -0.400000
v -0.400000 0.500000 -0.400000
vn -1.0000 0.0000 0.0000
vn 0.0000 0.0000 -1.0000
vn 1.0000 0.0000 0.0000
vn 0.0000 0.0000 1.0000
vn 0.0000 -1.0000 0.0000
vn 0.0000 1.0000 0.0000
usemtl Material
s off
f 1//1 2//1 4//1 3//1
f 3//2 4//2 8//2 7//2
f 7//3 8//3 9//3 6//3 5//3
f 5//4 6//4 10//4 2//4 1//4
f 3//5 7//5 5//5 1//5
f 2//4 10//4 15//4 19//4 21//4 12//4
f 9//6 11//6 10//6 6//6
f 20//4 18//4 29//4 31//4
f 8//2 4//2 13//2 14//2
f 10//3 11//3 17//3 15//3
f 9//3 8//3 14//3 22//3 18//3 16//3
f 11//4 9//4 16//4 17//4
f 4//1 2//1 12//1 13//1
f 18//6 20//6 19//6 15//6 17//6 16//6
f 22//3 14//3 26//3 28//3
f 27//3 32//3 37//3 35//3
f 28//6 32//6 27//6 30//6 31//6 29//6
f 12//4 21//4 27//4 24//4
f 13//1 12//1 24//1 25//1
f 21//4 19//4 30//4 27//4
f 19//3 20//3 31//3 30//3
f 14//2 13//2 25//2 26//2
f 18//3 22//3 28//3 29//3
f 24//4 27//4 35//4 38//4 23//4
f 25//1 24//1 23//1 33//1
f 32//4 28//4 36//4 37//4
f 28//3 26//3 34//3 39//3 36//3
f 26//2 25//2 33//2 34//2
f 39//6 40//6 38//6 35//6 37//6 36//6
f 39//3 34//3 47//3 48//3 49//3
f 34//2 33//2 46//2 47//2
f 48//6 53//6 52//6 50//6 51//6 49//6
f 45//4 52//4 58//4 60//4 44//4
f 38//4 50//4 52//4 45//4 23//4
f 53//4 48//4 57//4 59//4
f 38//3 40//3 51//3 50//3
f 33//1 23//1 45//1 46//1
f 40//4 39//4 49//4 51//4
f 41//6 61//6 60//6 58//6 59//6 57//6
f 60//3 61//3 68//3 67//3
f 42//2 43//2 55//2 54//2
f 48//3 47//3 42//3 41//3 57//3
f 46//1 45//1 44//1 43//1
f 52//3 53//3 59//3 58//3
f 47//2 46//2 43//2 42//2
f 65//6 70//6 69//6 67//6 68//6 66//6
f 56//4 69//4 75//4 77//4 64//4
f 61//4 41//4 66//4 68//4
f 64//4 77//4 84//4 81//4 72//4
f 43//1 44//1 56//1 55//1
f 65//3 54//3 62//3 73//3 74//3
f 41//3 42//3 54//3 65//3 66//3
f 73//6 78//6 77//6 75//6 76//6 74//6
f 54//2 55//2 63//2 62//2
f 69//3 70//3 76//3 75//3
f 73//3 62//3 80//3 82//3 83//3
f 70//4 65//4 74//4 76//4
f 44//4 60//4 67//4 69//4 56//4
f 55//1 56//1 64//1 63//1
f 72//4 81//4 89//4 79//4
f 82//6 86//6 81//6 84//6 85//6 83//6
f 63//1 64//1 72//1 71//1
f 78//4 73//4 83//4 85//4
f 62//2 63//2 71//2 80//2
f 77//3 78//3 85//3 84//3
f 88//6 87//6 79//6 89//6 91//6 90//6
f 71//1 72//1 79//1 87//1
f 86//4 82//4 90//4 91//4
f 82//3 80//3 88//3 90//3
f 80//2 71//2 87//2 88//2
f 81//3 86//3 91//3 89//3
