# Blender v2.78 (sub 0) OBJ File: 'raw.blend'
# www.blender.org
mtllib Simple_Stair.mtl
o Simple_Stair_Cube
v -0.400000 -0.500000 -0.500000
v -0.400000 -0.500000 0.500000
v -0.500000 -0.500000 0.500000
v -0.500000 -0.500000 -0.500000
v -0.400000 0.500000 -0.500000
v -0.400000 0.500000 0.500000
v -0.500000 0.500000 0.500000
v -0.500000 0.500000 -0.500000
v -0.400000 0.400000 0.500000
v -0.400000 0.400000 -0.500000
v -0.300000 -0.500000 -0.500000
v -0.300000 -0.500000 0.500000
v -0.300000 0.400000 0.500000
v -0.300000 0.400000 -0.500000
v -0.300000 0.300000 0.500000
v -0.300000 0.300000 -0.500000
v -0.200000 -0.500000 -0.500000
v -0.200000 -0.500000 0.500000
v -0.200000 0.300000 0.500000
v -0.200000 0.300000 -0.500000
v -0.200000 0.200000 0.500000
v -0.200000 0.200000 -0.500000
v -0.100000 -0.500000 -0.500000
v -0.100000 -0.500000 0.500000
v -0.100000 0.200000 0.500000
v -0.100000 0.200000 -0.500000
v -0.100000 0.100000 -0.500000
v -0.100000 0.100000 0.500000
v 0.000000 -0.500000 -0.500000
v 0.000000 -0.500000 0.500000
v 0.000000 0.100000 -0.500000
v 0.000000 0.100000 0.500000
v 0.000000 -0.000000 0.500000
v 0.000000 0.000000 -0.500000
v 0.000000 -0.500000 -0.500000
v 0.000000 -0.500000 0.500000
v 0.000000 -0.000000 0.500000
v 0.000000 0.000000 -0.500000
v 0.100000 -0.500000 -0.500000
v 0.100000 -0.500000 0.500000
v 0.100000 -0.000000 0.500000
v 0.100000 0.000000 -0.500000
v 0.100000 -0.100000 -0.500000
v 0.100000 -0.100000 0.500000
v 0.200000 -0.500000 -0.500000
v 0.200000 -0.500000 0.500000
v 0.200000 -0.100000 -0.500000
v 0.200000 -0.100000 0.500000
v 0.200000 -0.200000 0.500000
v 0.200000 -0.200000 -0.500000
v 0.300000 -0.500000 -0.500000
v 0.300000 -0.500000 0.500000
v 0.300000 -0.200000 0.500000
v 0.300000 -0.200000 -0.500000
v 0.300000 -0.300000 -0.500000
v 0.300000 -0.300000 0.500000
v 0.400000 -0.500000 -0.500000
v 0.400000 -0.500000 0.500000
v 0.400000 -0.300000 -0.500000
v 0.400000 -0.300000 0.500000
v 0.400000 -0.400000 -0.500000
v 0.400000 -0.400000 0.500000
v 0.500000 -0.500000 -0.500000
v 0.500000 -0.500000 0.500000
v 0.500000 -0.400000 -0.500000
v 0.500000 -0.400000 0.500000
vn 0.0000 -1.0000 0.0000
vn 0.0000 1.0000 0.0000
vn 0.0000 -0.0000 -1.0000
vn -0.0000 -0.0000 1.0000
vn -1.0000 -0.0000 -0.0000
vn 1.0000 -0.0000 0.0000
usemtl Material
s off
f 1//1 2//1 3//1 4//1
f 5//2 8//2 7//2 6//2
f 1//3 10//3 14//3 16//3 11//3
f 2//4 9//4 6//4 7//4 3//4
f 3//5 7//5 8//5 4//5
f 5//3 10//3 1//3 4//3 8//3
f 15//4 12//4 18//4 21//4 19//4
f 9//6 10//6 5//6 6//6
f 2//1 1//1 11//1 12//1
f 10//2 9//2 13//2 14//2
f 9//4 2//4 12//4 15//4 13//4
f 21//4 18//4 24//4 28//4 25//4
f 15//6 16//6 14//6 13//6
f 12//1 11//1 17//1 18//1
f 11//3 16//3 20//3 22//3 17//3
f 16//2 15//2 19//2 20//2
f 23//3 27//3 31//3 34//3 29//3
f 21//6 22//6 20//6 19//6
f 18//1 17//1 23//1 24//1
f 17//3 22//3 26//3 27//3 23//3
f 22//2 21//2 25//2 26//2
f 33//4 30//4 36//4 37//4
f 28//6 27//6 26//6 25//6
f 24//1 23//1 29//1 30//1
f 28//4 24//4 30//4 33//4 32//4
f 27//2 28//2 32//2 31//2
f 35//3 38//3 42//3 43//3 39//3
f 33//6 34//6 31//6 32//6
f 30//4 29//4 35//4 36//4
f 29//4 34//4 38//4 35//4
f 34//4 33//4 37//4 38//4
f 40//1 39//1 45//1 46//1
f 36//1 35//1 39//1 40//1
f 38//2 37//2 41//2 42//2
f 37//4 36//4 40//4 44//4 41//4
f 46//1 45//1 51//1 52//1
f 44//6 43//6 42//6 41//6
f 44//4 40//4 46//4 49//4 48//4
f 43//2 44//2 48//2 47//2
f 39//3 43//3 47//3 50//3 45//3
f 52//1 51//1 57//1 58//1
f 49//6 50//6 47//6 48//6
f 45//3 50//3 54//3 55//3 51//3
f 50//2 49//2 53//2 54//2
f 49//4 46//4 52//4 56//4 53//4
f 58//1 57//1 63//1 64//1
f 56//6 55//6 54//6 53//6
f 56//4 52//4 58//4 62//4 60//4
f 55//2 56//2 60//2 59//2
f 51//3 55//3 59//3 61//3 57//3
f 63//6 65//6 66//6 64//6
f 62//6 61//6 59//6 60//6
f 62//4 58//4 64//4 66//4
f 61//2 62//2 66//2 65//2
f 57//3 61//3 65//3 63//3
