# Blender v2.78 (sub 0) OBJ File: 'raw.blend'
# www.blender.org
mtllib Simple_Stair_Collider.mtl
o Simple_Stair_Cube
v -0.500000 -0.500000 0.500000
v -0.500000 -0.500000 -0.500000
v -0.400000 0.500000 -0.500000
v -0.400000 0.500000 0.500000
v -0.500000 0.500000 0.500000
v -0.500000 0.500000 -0.500000
v 0.500000 -0.500000 -0.500000
v 0.500000 -0.500000 0.500000
v 0.500000 -0.400000 -0.500000
v 0.500000 -0.400000 0.500000
vn 0.0000 1.0000 0.0000
vn -1.0000 -0.0000 -0.0000
vn 0.7071 0.7071 0.0000
vn 0.0000 -1.0000 0.0000
vn 1.0000 -0.0000 0.0000
vn -0.0000 -0.0000 1.0000
vn -0.0000 0.0000 -1.0000
usemtl Material
s off
f 3//1 6//1 5//1 4//1
f 1//2 5//2 6//2 2//2
f 4//3 10//3 9//3 3//3
f 2//4 7//4 8//4 1//4
f 7//5 9//5 10//5 8//5
f 1//6 8//6 10//6 4//6 5//6
f 3//7 9//7 7//7 2//7 6//7
